<?xml version="1.0" encoding="utf-8"?>
<!-- Designed by Vexels.com - 2016 All Rights Reserved - https://vexels.com/terms-and-conditions/  -->

<svg version="1.1" id="Layer_1" xmlns="http://www.w3.org/2000/svg" xmlns:xlink="http://www.w3.org/1999/xlink" x="0px" y="0px"
	 width="1200px" height="1200px" viewBox="0 0 1200 1200" enable-background="new 0 0 1200 1200" xml:space="preserve">
<g>
	<path fill="#575756" d="M1061.331,475.448v-51.909c0-52.522-42.549-95.04-94.968-95.04H144.968
		c-52.346,0-94.968,42.518-94.968,95.04v353.066c0,52.454,42.622,94.896,94.968,94.896h821.395
		c52.419,0,94.968-42.442,94.968-94.896v-63.615c49.48-3.343,88.669-44.159,88.669-94.427v-48.778
		C1150,519.381,1110.811,478.701,1061.331,475.448z M935.781,824.422H171.634c-45.073,2.587-69.986-18.933-67.327-72.208V454.941
		c0.771-49.39,17.708-73.096,67.327-72.222h764.147c51.787-0.874,67.747,23.986,67.324,72.222v297.273
		C1006.814,806.646,980.782,822.512,935.781,824.422z"/>
	<rect x="323.567" y="416.645" fill="#575756" width="113.934" height="373.852"/>
	<rect x="494.465" y="416.645" fill="#575756" width="114.005" height="373.852"/>
	<path fill="#575756" d="M266.598,416.645h-57.943c-45.141-0.752-60.605,19.349-61.308,61.182v251.505
		c-2.379,45.101,20.295,63.35,61.308,61.164h57.943V416.645z"/>
</g>
</svg>
